<mxfile host="app.diagrams.net" modified="2021-05-23T13:45:40.875Z" agent="5.0 (Macintosh; Intel Mac OS X 10_15_7) AppleWebKit/537.36 (KHTML, like Gecko) Chrome/90.0.4430.212 Safari/537.36" etag="v-3VJUlgjq_NObvxpAio" version="14.7.0" type="github">
  <diagram id="hS0-Jv9Vj2bL1MJ7biXk" name="Page-1">
    <mxGraphModel dx="1426" dy="723" grid="1" gridSize="10" guides="1" tooltips="1" connect="1" arrows="1" fold="1" page="1" pageScale="1" pageWidth="3300" pageHeight="4681" math="0" shadow="0">
      <root>
        <mxCell id="0" />
        <mxCell id="1" parent="0" />
        <mxCell id="uE4KDx4OiM6YPT5_iRpZ-1" value="" style="rounded=0;whiteSpace=wrap;html=1;" vertex="1" parent="1">
          <mxGeometry x="200" y="220" width="120" height="60" as="geometry" />
        </mxCell>
        <mxCell id="uE4KDx4OiM6YPT5_iRpZ-2" value="Table" style="shape=table;startSize=30;container=1;collapsible=1;childLayout=tableLayout;fixedRows=1;rowLines=0;fontStyle=1;align=center;resizeLast=1;" vertex="1" parent="1">
          <mxGeometry x="510" y="140" width="180" height="160" as="geometry" />
        </mxCell>
        <mxCell id="uE4KDx4OiM6YPT5_iRpZ-3" value="" style="shape=partialRectangle;collapsible=0;dropTarget=0;pointerEvents=0;fillColor=none;top=0;left=0;bottom=1;right=0;points=[[0,0.5],[1,0.5]];portConstraint=eastwest;" vertex="1" parent="uE4KDx4OiM6YPT5_iRpZ-2">
          <mxGeometry y="30" width="180" height="30" as="geometry" />
        </mxCell>
        <mxCell id="uE4KDx4OiM6YPT5_iRpZ-4" value="PK" style="shape=partialRectangle;connectable=0;fillColor=none;top=0;left=0;bottom=0;right=0;fontStyle=1;overflow=hidden;" vertex="1" parent="uE4KDx4OiM6YPT5_iRpZ-3">
          <mxGeometry width="30" height="30" as="geometry" />
        </mxCell>
        <mxCell id="uE4KDx4OiM6YPT5_iRpZ-5" value="UniqueID" style="shape=partialRectangle;connectable=0;fillColor=none;top=0;left=0;bottom=0;right=0;align=left;spacingLeft=6;fontStyle=5;overflow=hidden;" vertex="1" parent="uE4KDx4OiM6YPT5_iRpZ-3">
          <mxGeometry x="30" width="150" height="30" as="geometry" />
        </mxCell>
        <mxCell id="uE4KDx4OiM6YPT5_iRpZ-6" value="" style="shape=partialRectangle;collapsible=0;dropTarget=0;pointerEvents=0;fillColor=none;top=0;left=0;bottom=0;right=0;points=[[0,0.5],[1,0.5]];portConstraint=eastwest;" vertex="1" parent="uE4KDx4OiM6YPT5_iRpZ-2">
          <mxGeometry y="60" width="180" height="30" as="geometry" />
        </mxCell>
        <mxCell id="uE4KDx4OiM6YPT5_iRpZ-7" value="" style="shape=partialRectangle;connectable=0;fillColor=none;top=0;left=0;bottom=0;right=0;editable=1;overflow=hidden;" vertex="1" parent="uE4KDx4OiM6YPT5_iRpZ-6">
          <mxGeometry width="30" height="30" as="geometry" />
        </mxCell>
        <mxCell id="uE4KDx4OiM6YPT5_iRpZ-8" value="Row 1" style="shape=partialRectangle;connectable=0;fillColor=none;top=0;left=0;bottom=0;right=0;align=left;spacingLeft=6;overflow=hidden;" vertex="1" parent="uE4KDx4OiM6YPT5_iRpZ-6">
          <mxGeometry x="30" width="150" height="30" as="geometry" />
        </mxCell>
        <mxCell id="uE4KDx4OiM6YPT5_iRpZ-9" value="" style="shape=partialRectangle;collapsible=0;dropTarget=0;pointerEvents=0;fillColor=none;top=0;left=0;bottom=0;right=0;points=[[0,0.5],[1,0.5]];portConstraint=eastwest;" vertex="1" parent="uE4KDx4OiM6YPT5_iRpZ-2">
          <mxGeometry y="90" width="180" height="30" as="geometry" />
        </mxCell>
        <mxCell id="uE4KDx4OiM6YPT5_iRpZ-10" value="" style="shape=partialRectangle;connectable=0;fillColor=none;top=0;left=0;bottom=0;right=0;editable=1;overflow=hidden;" vertex="1" parent="uE4KDx4OiM6YPT5_iRpZ-9">
          <mxGeometry width="30" height="30" as="geometry" />
        </mxCell>
        <mxCell id="uE4KDx4OiM6YPT5_iRpZ-11" value="Row 2" style="shape=partialRectangle;connectable=0;fillColor=none;top=0;left=0;bottom=0;right=0;align=left;spacingLeft=6;overflow=hidden;" vertex="1" parent="uE4KDx4OiM6YPT5_iRpZ-9">
          <mxGeometry x="30" width="150" height="30" as="geometry" />
        </mxCell>
        <mxCell id="uE4KDx4OiM6YPT5_iRpZ-12" value="" style="shape=partialRectangle;collapsible=0;dropTarget=0;pointerEvents=0;fillColor=none;top=0;left=0;bottom=0;right=0;points=[[0,0.5],[1,0.5]];portConstraint=eastwest;" vertex="1" parent="uE4KDx4OiM6YPT5_iRpZ-2">
          <mxGeometry y="120" width="180" height="30" as="geometry" />
        </mxCell>
        <mxCell id="uE4KDx4OiM6YPT5_iRpZ-13" value="" style="shape=partialRectangle;connectable=0;fillColor=none;top=0;left=0;bottom=0;right=0;editable=1;overflow=hidden;" vertex="1" parent="uE4KDx4OiM6YPT5_iRpZ-12">
          <mxGeometry width="30" height="30" as="geometry" />
        </mxCell>
        <mxCell id="uE4KDx4OiM6YPT5_iRpZ-14" value="Row 3" style="shape=partialRectangle;connectable=0;fillColor=none;top=0;left=0;bottom=0;right=0;align=left;spacingLeft=6;overflow=hidden;" vertex="1" parent="uE4KDx4OiM6YPT5_iRpZ-12">
          <mxGeometry x="30" width="150" height="30" as="geometry" />
        </mxCell>
      </root>
    </mxGraphModel>
  </diagram>
</mxfile>
